<svg id="Capa_1" enable-background="new 0 0 512 512" height="512" viewBox="0 0 512 512" width="512" xmlns="http://www.w3.org/2000/svg"><path d="m159.772 63.418c-21.674 4.916-43.037 13.735-63.489 27.035-101.444 65.994-115.065 214.905-45.428 308.669l169.27 21.529 169.27-21.529 33.317-33.317-19.866-109.073-116.487-158.237-81.758-35.077z" fill="#f8e86a"/><path d="m50.855 399.121h30c-69.637-93.764-56.016-242.674 45.428-308.668 20.452-13.3 41.815-22.119 63.489-27.035h-30c-21.674 4.917-43.037 13.735-63.489 27.035-58.817 38.262-89.506 107.351-88.77 176.347.503 47.037 15.052 94.23 43.342 132.321z" fill="#fab659"/><path d="m477.373 399.122c0-24.841-1.915-49.827-5.951-74.44l-75.765-171.226c-58.697-67.495-149.781-109.569-235.885-90.038 56.254 11.975 109.144 45.469 147.907 90.038l75.765 171.226c4.037 24.613 5.951 49.599 5.951 74.44l40.221 21.529z" fill="#423e4f"/><path d="m210.912 58.775c-7.128-.277-14.267-.156-21.386.31-8.697.563-17.38 1.75-25.916 3.506-1.262.259-2.523.53-3.784.815-.018.004-.036.008-.054.012 5.222 1.112 10.415 2.411 15.57 3.884 4.791-1.489 9.602-2.789 14.43-3.884 9.397-2.131 18.854-3.529 28.321-4.24-2.391-.174-4.786-.31-7.181-.403z" fill="#423e4f"/><path d="m463.824 288.456c-8.28-32.221-20.566-63.344-37.375-92.17-1.449-2.494-2.95-4.968-4.492-7.421l-20.407-17.463h-195.402l-28.354 31.24v43.536l51.125 55.389h175.092z" fill="#7eaee3"/><path d="m193.116 219.682h223.48c4.893 0 9.713-.737 14.33-2.19 1.993-.621 3.918-1.363 5.776-2.211-3.214-6.429-6.621-12.769-10.252-18.996-1.449-2.495-2.95-4.968-4.492-7.421l-20.407-17.463h-195.403l-28.354 31.24z" fill="#358bd8"/><path d="m225.611 153.456h170.046 20.939c9.998 0 18.113 8.115 18.113 18.113 0 8.135-5.372 15.018-12.752 17.295-1.697.538-3.498.818-5.361.818h-190.985c-18.869 0-34.218 15.35-34.218 34.218 0 9.139 3.561 17.741 10.019 24.199l30.337 30.337c6.459 6.459 15.049 10.019 24.199 10.019h207.876 9.481c10.009 0 18.113 8.115 18.113 18.113 0 10.009-8.104 18.113-18.113 18.113h-1.884-215.474c-18.817 0-36.516-7.328-49.816-20.639l-30.337-30.327c-13.3-13.3-20.628-30.999-20.628-49.816 0-38.843 31.6-70.443 70.445-70.443z" fill="#4f4c5f"/><circle cx="177.794" cy="202.642" fill="#e8e8e8" r="37.461"/><circle cx="90.045" cy="281.304" fill="#423e4f" r="39.432"/><path d="m50.854 399.117h426.514c14.984 0 27.132 12.147 27.132 27.132 0 14.984-12.147 27.132-27.132 27.132h-426.514c-14.985 0-27.132-12.147-27.132-27.132 0-14.984 12.147-27.132 27.132-27.132z" fill="#4f4c5f"/><path d="m53.722 426.249c0-14.985 12.147-27.132 27.132-27.132h-30c-14.985 0-27.132 12.147-27.132 27.132 0 14.984 12.147 27.132 27.132 27.132h30c-14.985 0-27.132-12.147-27.132-27.132z" fill="#423e4f"/><path d="m90.008 234.398c-25.881 0-46.936 21.056-46.936 46.936 0 25.881 21.056 46.936 46.936 46.936s46.936-21.056 46.936-46.936c0-25.881-21.055-46.936-46.936-46.936zm0 15.001c17.609 0 31.934 14.326 31.934 31.934 0 17.609-14.325 31.935-31.934 31.935s-31.935-14.326-31.935-31.935c0-17.608 14.326-31.934 31.935-31.934z"/><path d="m8.113 326.816c1.065 4.004 5.175 6.385 9.177 5.32 4.003-1.066 6.385-5.174 5.32-9.177-11.04-41.491-10.05-86.306 2.787-126.19 13.652-42.419 39.566-77.004 74.94-100.016 18.568-12.074 38.554-20.693 59.43-25.631.672.148 1.345.299 2.017.454 30.834 7.105 60.048 20.799 86.099 38.645 15.325 10.498 29.632 22.488 42.637 35.752h-64.934c-3.622 0-7.234.274-10.823.757-10.966 1.476-21.569 5.447-30.896 11.385-.866-.117-4.937-.416-6.102-.416-24.794 0-44.965 20.171-44.965 44.965 0 .067.005.133.006.2.048 13.053 5.986 25.692 15.934 34.131.003.02.117.615.168.894.7 3.875 1.66 7.689 2.944 11.414 3.847 11.157 10.264 21.402 18.61 29.746l30.341 30.33c14.533 14.548 34.555 22.836 55.123 22.836h121.068c1.464 9.853 2.609 19.751 3.403 29.68.795 9.903 1.253 19.828 1.413 29.76h-327.181c-9.008-12.625-16.657-26.495-22.765-41.284-1.582-3.829-5.967-5.651-9.796-4.07s-5.651 5.967-4.07 9.796c5.547 13.432 12.306 26.153 20.122 37.977-12.835 5.075-21.942 17.598-21.942 32.215 0 19.098 15.537 34.635 34.635 34.635h426.551c19.098 0 34.635-15.537 34.635-34.635 0-16.544-11.663-30.407-27.196-33.822-.285-20.723-1.885-41.229-4.788-61.153 10.877-2.959 18.901-12.915 18.901-24.716 0-14.124-11.491-25.616-25.616-25.616h-3.714c-8.678-31.85-20.997-61.584-36.667-88.455-.155-.268-.326-.546-.483-.815 6.05-4.739 9.765-12.049 9.765-20.125 0-14.124-11.491-25.616-25.616-25.616h-17.561c-16.662-18.725-35.568-35.3-56.252-49.29-3.431-2.321-8.094-1.421-10.415 2.011-2.321 3.431-1.421 8.094 2.011 10.415 15.898 10.753 30.698 23.113 44.154 36.864h-67.473c-15.419-17.313-32.874-32.815-51.841-46.143-19.602-13.773-40.89-25.222-63.346-33.604 37.098-1.434 75.468 7.828 112.685 27.409 3.666 1.929 8.202.521 10.13-3.145 1.929-3.666.521-8.202-3.145-10.13-52.096-27.408-106.541-35.792-157.45-24.244-23.202 5.263-45.382 14.706-65.925 28.064-38.297 24.914-66.32 62.258-81.04 107.995-13.707 42.59-14.774 90.406-3.004 134.643zm217.462-144.613c-2.119 0-4.234.171-6.328.492-.363.056-.727.107-1.088.172-.645-1.225-1.305-2.44-2.026-3.622-3.408-5.589-7.969-10.362-13.374-13.974.177-.069.355-.133.533-.201 7.015-2.666 14.785-4.095 22.295-4.095h191.002c5.853 0 10.614 4.762 10.614 10.614 0 4.416-2.67 8.288-6.719 9.87-.075.003-194.909.744-194.909.744zm-17.847 20.462c0 16.138-13.946 29.603-29.898 29.961-.022 0-.043.002-.065.002-16.028-.011-29.844-13.86-29.961-29.861 0-.034-.003-.068-.003-.102 0-16.522 13.441-29.964 29.963-29.964 16.027 0 29.964 13.906 29.964 29.964zm210.098-6.178c.733 1.211 1.445 2.41 2.129 3.588 14.368 24.639 25.806 51.814 34.067 80.91h-198.097c-7.053 0-13.909-2.835-18.898-7.823 0 0-31.287-31.336-31.732-31.854-.587-.587-1.062-1.286-1.536-1.964.178-.126.345-.265.521-.395 2.683-1.998 5.187-4.23 7.367-6.773.012-.014.024-.027.035-.041 5.181-5.955 8.82-13.278 10.299-21.352.785-4.32.949-8.761.462-13.126-.009-.081-.012-.163-.021-.243.173-.021.866-.102 1.04-.116zm-25.652 135.728h72.825c2.877 19.346 4.49 39.28 4.811 59.441h-72.983c-.158-10.179-.629-20.306-1.438-30.456-.759-9.579-1.824-19.262-3.176-28.702-.014-.094-.026-.189-.039-.283zm-341.36 74.443h426.551c10.826 0 19.634 8.807 19.634 19.634s-8.807 19.634-19.634 19.634h-426.551c-10.826 0-19.634-8.807-19.634-19.634s8.808-19.634 19.634-19.634zm165.231-103.679c-7.104-5.836-34.977-34.539-34.977-34.539-5.546-5.55-10.087-12.151-13.207-19.319-.366-.841-1.116-2.757-1.154-2.861 3.574.904 7.35 1.365 11.034 1.367 3.97.002 7.965-.534 11.796-1.573.191-.052.385-.088.576-.143 1.683 2.72 3.709 5.258 5.969 7.517l30.339 30.34c7.879 7.878 18.357 12.217 29.505 12.217h217.376c5.853 0 10.614 4.762 10.614 10.614s-4.762 10.614-10.614 10.614h-217.377c-5.198 0-10.368-.653-15.377-1.915-8.926-2.249-17.342-6.436-24.503-12.319z"/></svg>