<svg id="Icon_Set" enable-background="new 0 0 64 64" height="512" viewBox="0 0 64 64" width="512" xmlns="http://www.w3.org/2000/svg"><path d="m27 34h6c5.523 0 10-4.477 10-10v-7c0-6.627-5.373-12-12-12h-2c-6.627 0-12 5.373-12 12v7c0 5.523 4.477 10 10 10z" fill="#e8d2a8"/><path d="m33 34.5h-6c-5.79 0-10.5-4.71-10.5-10.5v-7c0-6.893 5.607-12.5 12.5-12.5h2c6.893 0 12.5 5.607 12.5 12.5v7c0 5.79-4.71 10.5-10.5 10.5zm-4-29c-6.341 0-11.5 5.159-11.5 11.5v7c0 5.238 4.262 9.5 9.5 9.5h6c5.238 0 9.5-4.262 9.5-9.5v-7c0-6.341-5.159-11.5-11.5-11.5z" fill="#212a41"/><path d="m17 21v3c0 5.523 4.477 10 10 10h6c5.523 0 10-4.477 10-10v-3z" fill="#6c696f"/><path d="m33 34.5h-6c-5.79 0-10.5-4.71-10.5-10.5v-3c0-.276.224-.5.5-.5h26c.276 0 .5.224.5.5v3c0 5.79-4.71 10.5-10.5 10.5zm-15.5-13v2.5c0 5.238 4.262 9.5 9.5 9.5h6c5.238 0 9.5-4.262 9.5-9.5v-2.5z" fill="#212a41"/><path d="m35 38h-18c-6.627 0-12 5.373-12 12v10h42v-10c0-6.627-5.373-12-12-12z" fill="#b51040"/><path d="m47 60.5h-42c-.276 0-.5-.224-.5-.5v-10c0-6.893 5.607-12.5 12.5-12.5h18c6.893 0 12.5 5.607 12.5 12.5v10c0 .276-.224.5-.5.5zm-41.5-1h41v-9.5c0-6.341-5.159-11.5-11.5-11.5h-18c-6.341 0-11.5 5.159-11.5 11.5z" fill="#212a41"/><path d="m34 38v22h21v-10c0-6.627-5.373-12-12-12z" fill="#d32e5e"/><path d="m55 60.5h-21c-.276 0-.5-.224-.5-.5v-22c0-.276.224-.5.5-.5h9c6.893 0 12.5 5.607 12.5 12.5v10c0 .276-.224.5-.5.5zm-20.5-1h20v-9.5c0-6.341-5.159-11.5-11.5-11.5h-8.5z" fill="#212a41"/><path d="m26 26-3.2-2.4c-.504-.378-.8-.97-.8-1.6v-5c0-1.105.895-2 2-2h19.95c-.51-6.158-5.66-11-11.95-11h-4c-6.627 0-12 5.373-12 12v8c0 5.523 4.477 10 10 10h2c1.105 0 2-.895 2-2v-4c0-1.105-.895-2-2-2z" fill="#d32e5e"/><path d="m28 34.5h-2c-5.79 0-10.5-4.71-10.5-10.5v-8c0-6.893 5.607-12.5 12.5-12.5h4c6.449 0 11.917 5.033 12.448 11.459.011.139-.036.277-.131.38s-.228.161-.368.161h-19.949c-.827 0-1.5.673-1.5 1.5v5c0 .47.224.918.6 1.2l3.066 2.3h1.834c1.378 0 2.5 1.122 2.5 2.5v4c0 1.378-1.122 2.5-2.5 2.5zm0-30c-6.341 0-11.5 5.159-11.5 11.5v8c0 5.238 4.262 9.5 9.5 9.5h2c.827 0 1.5-.673 1.5-1.5v-4c0-.827-.673-1.5-1.5-1.5h-2c-.108 0-.213-.035-.3-.1l-3.2-2.4c-.626-.47-1-1.218-1-2v-5c0-1.378 1.122-2.5 2.5-2.5h19.394c-.741-5.65-5.644-10-11.394-10z" fill="#212a41"/><path d="m26 32.5c-4.687 0-8.5-3.813-8.5-8.5v-8c0-5.79 4.71-10.5 10.5-10.5.276 0 .5.224.5.5s-.224.5-.5.5c-5.238 0-9.5 4.262-9.5 9.5v8c0 4.136 3.364 7.5 7.5 7.5.276 0 .5.224.5.5s-.224.5-.5.5z" fill="#f14c7c"/><path d="m33 34h8v4h-8z" fill="#b51040"/><path d="m41 38.5h-8c-.276 0-.5-.224-.5-.5v-4c0-.276.224-.5.5-.5h8c.276 0 .5.224.5.5v4c0 .276-.224.5-.5.5zm-7.5-1h7v-3h-7z" fill="#212a41"/><path d="m25 34h10v4h-10z" fill="#6c696f"/><path d="m35 38.5h-10c-.276 0-.5-.224-.5-.5v-4c0-.276.224-.5.5-.5h10c.276 0 .5.224.5.5v4c0 .276-.224.5-.5.5zm-9.5-1h9v-3h-9z" fill="#212a41"/><path d="m21 34h8v4h-8z" fill="#b51040"/><path d="m29 38.5h-8c-.276 0-.5-.224-.5-.5v-4c0-.276.224-.5.5-.5h8c.276 0 .5.224.5.5v4c0 .276-.224.5-.5.5zm-7.5-1h7v-3h-7z" fill="#212a41"/><path d="m34 38v22h-21v-10c0-6.627 5.373-12 12-12z" fill="#d32e5e"/><path d="m34 60.5h-21c-.276 0-.5-.224-.5-.5v-10c0-6.893 5.607-12.5 12.5-12.5h9c.276 0 .5.224.5.5v22c0 .276-.224.5-.5.5zm-20.5-1h20v-21h-8.5c-6.341 0-11.5 5.159-11.5 11.5z" fill="#212a41"/><path d="m7 58.5c-.276 0-.5-.224-.5-.5v-8c0-4.977 3.539-9.305 8.414-10.292.271-.055.535.121.589.391.055.271-.121.534-.391.589-4.411.893-7.612 4.81-7.612 9.312v8c0 .276-.224.5-.5.5z" fill="#d32e5e"/><path d="m15 58.5c-.276 0-.5-.224-.5-.5v-8c0-5.79 4.71-10.5 10.5-10.5h.599c.276 0 .5.224.5.5s-.224.5-.5.5h-.599c-5.238 0-9.5 4.262-9.5 9.5v8c0 .276-.224.5-.5.5z" fill="#f14c7c"/><path d="m52.599 58.5c-.276 0-.5-.224-.5-.5v-8c0-5.238-4.262-9.5-9.5-9.5h-.599c-.276 0-.5-.224-.5-.5s.224-.5.5-.5h.599c5.79 0 10.5 4.71 10.5 10.5v8c0 .276-.224.5-.5.5z" fill="#b51040"/><path d="m41 49h8v3h-8z" fill="#0079a8"/><path d="m49 52.5h-8c-.276 0-.5-.224-.5-.5v-3c0-.276.224-.5.5-.5h8c.276 0 .5.224.5.5v3c0 .276-.224.5-.5.5zm-7.5-1h7v-2h-7z" fill="#212a41"/><path d="m42 30h-4c-.552 0-1-.448-1-1v-2c0-.552.448-1 1-1h4c.552 0 1 .448 1 1v2c0 .552-.448 1-1 1z" fill="#0079a8"/><path d="m42 30.5h-4c-.827 0-1.5-.673-1.5-1.5v-2c0-.827.673-1.5 1.5-1.5h4c.827 0 1.5.673 1.5 1.5v2c0 .827-.673 1.5-1.5 1.5zm-4-4c-.276 0-.5.224-.5.5v2c0 .276.224.5.5.5h4c.276 0 .5-.224.5-.5v-2c0-.276-.224-.5-.5-.5z" fill="#212a41"/><path d="m43.764 28.5h-.764c-.276 0-.5-.224-.5-.5s.224-.5.5-.5h.764c.523 0 1-.266 1.276-.711s.3-.991.065-1.459l-2.553-5.105c-.124-.247-.023-.547.224-.671.247-.122.546-.024.671.224l2.553 5.104c.39.781.35 1.69-.109 2.433-.459.742-1.254 1.185-2.127 1.185z" fill="#212a41"/><path d="m43 23h-4.586c-.265 0-.52-.105-.707-.293l-1-1c-.391-.391-1.024-.391-1.414 0l-1 1c-.188.188-.442.293-.707.293h-4.586c-1.105 0-2-.895-2-2v-4c0-1.105.895-2 2-2h14c1.105 0 2 .895 2 2v4c0 1.105-.895 2-2 2z" fill="#b7c0d7"/><path d="m43 23.5h-4.586c-.4 0-.777-.156-1.061-.439l-1-1c-.195-.195-.512-.195-.707 0l-1 1c-.283.283-.66.439-1.061.439h-4.585c-1.378 0-2.5-1.122-2.5-2.5v-4c0-1.378 1.122-2.5 2.5-2.5h14c1.378 0 2.5 1.122 2.5 2.5v4c0 1.378-1.122 2.5-2.5 2.5zm-7-2.586c.4 0 .777.156 1.061.439l1 1c.093.093.222.146.354.146h4.585c.827 0 1.5-.673 1.5-1.5v-4c0-.827-.673-1.5-1.5-1.5h-14c-.827 0-1.5.673-1.5 1.5v4c0 .827.673 1.5 1.5 1.5h4.586c.131 0 .26-.053.354-.146l1-1c.283-.283.66-.439 1.06-.439z" fill="#212a41"/><path d="m22 23-6-2v-4h6z" fill="#005b8a"/><path d="m18 22.167c-.276 0-.5-.224-.5-.5v-4.667c0-.276.224-.5.5-.5s.5.224.5.5v4.667c0 .276-.224.5-.5.5z" fill="#1e97c6"/><path d="m22 23.5c-.053 0-.106-.008-.158-.026l-6-2c-.204-.068-.342-.259-.342-.474v-4c0-.276.224-.5.5-.5h6c.276 0 .5.224.5.5v6c0 .161-.077.312-.208.406-.086.062-.188.094-.292.094zm-5.5-2.86 5 1.667v-4.807h-5z" fill="#212a41"/><path d="m43 21.5c-.276 0-.5-.224-.5-.5v-4c0-.276.224-.5.5-.5s.5.224.5.5v4c0 .276-.224.5-.5.5z" fill="#99a2b9"/><path d="m29 21.5c-.276 0-.5-.224-.5-.5v-4c0-.276.224-.5.5-.5s.5.224.5.5v4c0 .276-.224.5-.5.5z" fill="#d5def5"/><path d="m53 60h-28v-16l7 2 7-2 7 2 7-2z" fill="#e0e0e0"/><path d="m53 60.5h-28c-.276 0-.5-.224-.5-.5v-16c0-.157.074-.305.199-.399.126-.094.288-.124.438-.082l6.863 1.961 6.863-1.961c.09-.025.185-.025.274 0l6.863 1.961 6.863-1.961c.15-.042.313-.013.438.082.125.094.199.242.199.399v16c0 .276-.224.5-.5.5zm-27.5-1h27v-14.837l-6.363 1.818c-.09.025-.185.025-.274 0l-6.863-1.961-6.863 1.961c-.09.025-.185.025-.274 0l-6.363-1.818z" fill="#212a41"/><path d="m57 60h-6c-1.105 0-2-.895-2-2v-4c0-1.105.895-2 2-2h6c1.105 0 2 .895 2 2v4c0 1.105-.895 2-2 2z" fill="#6c696f"/><path d="m57 60.5h-6c-1.378 0-2.5-1.122-2.5-2.5v-4c0-1.378 1.122-2.5 2.5-2.5h6c1.378 0 2.5 1.122 2.5 2.5v4c0 1.378-1.122 2.5-2.5 2.5zm-6-8c-.827 0-1.5.673-1.5 1.5v4c0 .827.673 1.5 1.5 1.5h6c.827 0 1.5-.673 1.5-1.5v-4c0-.827-.673-1.5-1.5-1.5z" fill="#212a41"/><path d="m27 60h-6c-1.105 0-2-.895-2-2v-4c0-1.105.895-2 2-2h6c1.105 0 2 .895 2 2v4c0 1.105-.895 2-2 2z" fill="#6c696f"/><path d="m27 60.5h-6c-1.378 0-2.5-1.122-2.5-2.5v-4c0-1.378 1.122-2.5 2.5-2.5h6c1.378 0 2.5 1.122 2.5 2.5v4c0 1.378-1.122 2.5-2.5 2.5zm-6-8c-.827 0-1.5.673-1.5 1.5v4c0 .827.673 1.5 1.5 1.5h6c.827 0 1.5-.673 1.5-1.5v-4c0-.827-.673-1.5-1.5-1.5z" fill="#212a41"/><path d="m25 52h-4v-1c0-.552.448-1 1-1h2c.552 0 1 .448 1 1z" fill="#6c696f"/><path d="m25 52.5h-4c-.276 0-.5-.224-.5-.5v-1c0-.827.673-1.5 1.5-1.5h2c.827 0 1.5.673 1.5 1.5v1c0 .276-.224.5-.5.5zm-3.5-1h3v-.5c0-.276-.224-.5-.5-.5h-2c-.276 0-.5.224-.5.5z" fill="#212a41"/><path d="m57 52h-4v-1c0-.552.448-1 1-1h2c.552 0 1 .448 1 1z" fill="#6c696f"/><g fill="#212a41"><path d="m57 52.5h-4c-.276 0-.5-.224-.5-.5v-1c0-.827.673-1.5 1.5-1.5h2c.827 0 1.5.673 1.5 1.5v1c0 .276-.224.5-.5.5zm-3.5-1h3v-.5c0-.276-.224-.5-.5-.5h-2c-.276 0-.5.224-.5.5z"/><path d="m32 60.5c-.276 0-.5-.224-.5-.5v-14c0-.276.224-.5.5-.5s.5.224.5.5v14c0 .276-.224.5-.5.5z"/><path d="m46 60.5c-.276 0-.5-.224-.5-.5v-14c0-.276.224-.5.5-.5s.5.224.5.5v14c0 .276-.224.5-.5.5z"/><path d="m39 60.5c-.276 0-.5-.224-.5-.5v-16c0-.276.224-.5.5-.5s.5.224.5.5v16c0 .276-.224.5-.5.5z"/></g></svg>