<?xml version="1.0" encoding="iso-8859-1"?>
<!-- Generator: Adobe Illustrator 19.0.0, SVG Export Plug-In . SVG Version: 6.00 Build 0)  -->
<svg version="1.1" id="Capa_1" xmlns="http://www.w3.org/2000/svg" xmlns:xlink="http://www.w3.org/1999/xlink" x="0px" y="0px"
	 viewBox="0 0 512 512" style="enable-background:new 0 0 512 512;" xml:space="preserve">
<polygon style="fill:#6B778A;" points="204.8,145.067 8.533,503.467 503.467,503.467 307.2,145.067 "/>
<path style="fill:#FFDC13;" d="M256,358.4c-4.71,0-8.533,3.823-8.533,8.533v136.533h17.067V366.933
	C264.533,362.223,260.71,358.4,256,358.4z"/>
<rect x="221.867" y="76.8" style="fill:#B7E5FF;" width="68.267" height="68.267"/>
<rect x="290.133" y="76.8" style="fill:#4DB5FF;" width="68.267" height="68.267"/>
<rect x="358.4" y="76.8" style="fill:#B7E5FF;" width="68.267" height="68.267"/>
<rect x="358.4" y="8.533" style="fill:#4DB5FF;" width="68.267" height="68.267"/>
<rect x="85.333" y="145.067" style="fill:#FFA511;" width="34.133" height="102.4"/>
<rect x="85.333" y="76.8" style="fill:#B7E5FF;" width="68.267" height="68.267"/>
<rect x="392.533" y="145.067" style="fill:#F08015;" width="34.133" height="102.4"/>
<g>
	<path style="fill:#FFDC13;" d="M256,187.733c4.71,0,8.533-3.823,8.533-8.533v-34.133h-17.067V179.2
		C247.467,183.91,251.29,187.733,256,187.733z"/>
	<path style="fill:#FFDC13;" d="M256,315.733c-4.71,0-8.533-3.823-8.533-8.533v-85.333c0-4.71,3.823-8.533,8.533-8.533
		c4.71,0,8.533,3.823,8.533,8.533V307.2C264.533,311.91,260.71,315.733,256,315.733z"/>
</g>
<g>
	<rect x="153.6" y="76.8" style="fill:#4DB5FF;" width="68.267" height="68.267"/>
	<rect x="85.333" y="8.533" style="fill:#4DB5FF;" width="68.267" height="68.267"/>
</g>
<rect x="153.6" y="8.533" style="fill:#B7E5FF;" width="68.267" height="68.267"/>
<rect x="221.867" y="8.533" style="fill:#4DB5FF;" width="68.267" height="68.267"/>
<rect x="290.133" y="8.533" style="fill:#B7E5FF;" width="68.267" height="68.267"/>
<path style="fill:#96D0EA;" d="M275.302,145.067h14.831v-7.45C285.227,140.169,280.303,142.686,275.302,145.067z"/>
<path style="fill:#3596D8;" d="M290.133,137.617v7.45H358.4V93.628C337.033,110.345,314.18,125.065,290.133,137.617z"/>
<path style="fill:#96D0EA;" d="M358.4,93.628v51.439h68.267V76.8h-47.991C372.096,82.611,365.338,88.226,358.4,93.628z"/>
<path style="fill:#3596D8;" d="M378.675,76.8h47.991V27.494C411.964,45.141,395.921,61.628,378.675,76.8z"/>
<path style="fill:#F08015;" d="M85.333,247.467h34.133V186.3c-11.281,0.853-22.639,1.434-34.133,1.434V247.467z"/>
<g>
	<path style="fill:#535B6D;" d="M400.256,314.991c-30.063,58.317-77.491,105.865-135.723,136.081v52.395h238.933L400.256,314.991z"
		/>
	<path style="fill:#535B6D;" d="M119.467,486.4c-31.812,0.026-63.445-4.753-93.824-14.174L8.533,503.467h238.933v-44.186
		C207.172,477.193,163.567,486.434,119.467,486.4z"/>
</g>
<path style="fill:#E5AF17;" d="M247.467,459.281v44.186h17.067v-52.395C258.935,453.973,253.244,456.713,247.467,459.281z"/>
<path style="fill:#EF2648;" d="M460.8,110.933c14.225,8.192,28.442-8.192,42.667,0v34.133c-14.225-8.192-28.442,8.192-42.667,0
	V110.933z"/>
<path style="fill:#B20D24;" d="M460.8,136.533v8.533c14.225,7.552,28.442-7.552,42.667,0v-31.454
	C494.293,119.467,478.618,142.933,460.8,136.533z"/>
<path style="fill:#EF2648;" d="M51.2,110.933c-14.225,8.192-28.442-8.192-42.667,0v34.133c14.225-8.192,28.442,8.192,42.667,0
	V110.933z"/>
<path style="fill:#B20D24;" d="M8.533,136.533v8.533c14.225-7.552,28.442,7.552,42.667,0v-31.454
	C42.027,135.398,26.351,130.133,8.533,136.533z"/>
<path d="M507.733,103.543c-8.747-4.343-18.953-4.651-27.955-0.853c-6.827,1.98-10.923,2.978-14.711,0.853
	c-4.079-2.355-9.301-0.956-11.657,3.123c-0.751,1.297-1.143,2.765-1.143,4.267v136.533c0,4.71,3.823,8.533,8.533,8.533
	s8.533-3.823,8.533-8.533v-91.511h0.418c5.018-0.205,9.984-1.109,14.746-2.705c6.827-1.98,10.914-2.97,14.711-0.811
	c4.087,2.355,9.301,0.947,11.657-3.14c0.742-1.289,1.135-2.748,1.135-4.233v-34.133C512,107.887,510.37,105.071,507.733,103.543z
	 M494.933,134.161c-5.154,0.179-10.266,1.092-15.164,2.705c-3.354,1.203-6.878,1.886-10.436,2.022v-17.067
	c5.154-0.171,10.266-1.084,15.164-2.705c3.354-1.203,6.878-1.877,10.436-2.005V134.161z"/>
<path d="M4.267,152.457c2.637,1.527,5.897,1.527,8.533,0c3.797-2.159,7.859-1.169,14.711,0.811c4.762,1.596,9.728,2.5,14.746,2.705
	h0.418v91.494c0,4.71,3.823,8.533,8.542,8.525c4.71,0,8.525-3.823,8.525-8.525V110.933c0-4.71-3.823-8.533-8.533-8.533
	c-1.502,0-2.97,0.393-4.267,1.143c-3.789,2.167-7.859,1.169-14.711-0.853c-9.003-3.797-19.209-3.49-27.955,0.853
	C1.63,105.062,0,107.887,0,110.933v34.133C0,148.113,1.63,150.929,4.267,152.457z M17.067,117.111
	c3.567,0.119,7.083,0.802,10.436,2.022c4.898,1.63,10.001,2.543,15.164,2.705v17.067c-3.558-0.145-7.083-0.819-10.436-2.022
	c-4.762-1.596-9.728-2.5-14.746-2.705h-0.418V117.111z"/>
<path d="M510.95,499.371L321.604,153.6H384v93.867c0,4.71,3.823,8.533,8.533,8.533h34.133c4.71,0,8.533-3.823,8.533-8.533V8.533
	c0-4.71-3.823-8.533-8.533-8.533H85.333C80.623,0,76.8,3.823,76.8,8.533v238.933c0,4.71,3.823,8.533,8.533,8.533h34.133
	c4.71,0,8.533-3.823,8.533-8.533V153.6h62.396L1.05,499.371c-2.261,4.139-0.742,9.318,3.388,11.58C5.692,511.642,7.1,512,8.533,512
	h494.933c4.71,0,8.533-3.823,8.533-8.533C512,502.033,511.633,500.625,510.95,499.371z M230.4,136.533v-51.2h51.2v51.2H230.4z
	 M298.667,85.333h51.2v51.2h-51.2V85.333z M366.933,85.333h51.2v51.2h-51.2V85.333z M418.133,238.933h-17.067V153.6h17.067V238.933z
	 M418.133,68.267h-51.2v-51.2h51.2V68.267z M349.867,68.267h-51.2v-51.2h51.2V68.267z M281.6,68.267h-51.2v-51.2h51.2V68.267z
	 M213.333,68.267h-51.2v-51.2h51.2V68.267z M145.067,136.533h-51.2v-51.2h51.2V136.533z M93.867,17.067h51.2v51.2h-51.2V17.067z
	 M110.933,238.933H93.867V153.6h17.067V238.933z M162.133,85.333h51.2v51.2h-51.2V85.333z M22.938,494.933L209.818,153.6h92.331
	l186.88,341.333H22.938z"/>
<g>
</g>
<g>
</g>
<g>
</g>
<g>
</g>
<g>
</g>
<g>
</g>
<g>
</g>
<g>
</g>
<g>
</g>
<g>
</g>
<g>
</g>
<g>
</g>
<g>
</g>
<g>
</g>
<g>
</g>
</svg>
