<svg height="511pt" viewBox="0 -119 511.98251 511" width="511pt" xmlns="http://www.w3.org/2000/svg"><path d="m170.582031 51.777344-51.117187 93.78125c-8.484375-1.28125-17.113282-1.28125-25.597656 0-12.972657 0-25.089844-13.398438-35.414063-7.167969l-15.785156-18.433594 34.132812-42.664062h8.53125c4.695313 0 17.066407 4.691406 17.066407 0l8.535156-8.535157 58.625-16.726562zm0 0" fill="#424242"/><path d="m502.613281 238.828125c-2.234375 5.605469-7.707031 9.238281-13.738281 9.128906h-16.382812c.082031-.167969.167968-.425781.253906-.597656 1.421875-3.878906 1.078125-8.1875-.9375-11.792969-2.019532-3.609375-5.507813-6.15625-9.558594-6.980468l-11.347656-2.300782c-13.238282-2.59375-26.070313-6.957031-38.144532-12.972656l-101.292968-50.6875-63.144532-15.785156c-3.40625-.851563-6.902343-1.28125-10.410156-1.28125h-71.511718l-50.941407-7.253906c2.644531-4.4375 9.042969-7.851563 21.078125-9.8125l59.730469 8.53125h71.511719c3.507812 0 7.003906.429687 10.410156 1.28125l63.144531 15.785156 101.292969 50.6875c12.074219 6.019531 24.902344 10.378906 38.144531 12.972656l11.347657 2.304688c4.050781.820312 7.539062 3.371093 9.558593 6.976562 2.015625 3.609375 2.359375 7.914062.9375 11.796875zm0 0" fill="#c52828"/><path d="m472.746094 247.359375c-.085938.171875-.171875.429687-.253906.597656h-37.292969l-102.398438-25.597656-17.492187 11.605469-8.109375 5.460937c-5.375 5.375-18.089844 7.421875-29.183594 8.105469-5.375.339844-10.324219.425781-13.910156.425781h-33.707031l-76.796876-17.066406-17.066406-17.066406c.511719-5.675781.511719-11.390625 0-17.066407 0-19.285156-29.953125-44.03125-21.078125-58.453124l50.941407 7.253906h71.511718c3.507813 0 7.003906.429687 10.410156 1.28125l63.144532 15.785156 101.292968 50.6875c12.074219 6.015625 24.90625 10.378906 38.144532 12.972656l11.347656 2.300782c4.050781.824218 7.539062 3.371093 9.558594 6.980468 2.015625 3.605469 2.359375 7.914063.9375 11.792969zm0 0" fill="#f44335"/><path d="m435.199219 247.957031h-171.09375c11.203125 0 21.945312-4.449219 29.867187-12.371093l30.292969-30.292969zm0 0" fill="#c52828"/><path d="m230.398438 247.957031h-91.390626c10.789063-9.503906 18.3125-22.160156 21.503907-36.179687l1.621093 2.046875zm0 0" fill="#c52828"/><path d="m460.800781 196.757812c0 37.703126-30.566406 68.265626-68.265625 68.265626-3.574218.015624-7.144531-.269532-10.667968-.851563-33.128907-5.289063-57.507813-33.863281-57.507813-67.414063 0-33.546874 24.378906-62.125 57.507813-67.414062 3.523437-.582031 7.09375-.867188 10.667968-.851562 37.699219 0 68.265625 30.5625 68.265625 68.265624zm0 0" fill="#37474f"/><path d="m439.464844 196.757812c0-37.230468-25.785156-67.414062-57.597656-67.414062s-57.601563 30.183594-57.601563 67.414062c0 37.230469 25.789063 67.414063 57.601563 67.414063s57.597656-30.183594 57.597656-67.414063zm0 0" fill="#607d8b"/><path d="m418.132812 196.757812c0 14.136719-11.460937 25.601563-25.597656 25.601563-3.691406.007813-7.335937-.808594-10.667968-2.390625-9.09375-4.144531-14.933594-13.21875-14.933594-23.210938 0-9.992187 5.839844-19.066406 14.933594-23.210937 3.332031-1.582031 6.976562-2.398437 10.667968-2.390625 14.136719 0 25.597656 11.464844 25.597656 25.601562zm0 0" fill="#9e9e9e"/><path d="m110.933594 17.558594v59.734375c0 4.710937-3.820313 8.53125-8.535156 8.53125h-17.066407l-25.597656 51.199219-1.28125 1.367187-.253906.171875-22.53125 22.527344-.167969.253906-1.367188 1.28125-12.800781-17.066406-7.679687-10.242188c-3.324219-4.429687-5.117188-9.820312-5.117188-15.359375v-102.398437c0-4.714844 3.820313-8.535156 8.53125-8.535156h85.332032c4.714843 0 8.535156 3.820312 8.535156 8.535156zm0 0" fill="#c52828"/><path d="m89.601562 9.023438v51.199218c0 4.714844-3.820312 8.535156-8.535156 8.535156h-8.53125l-25.601562 51.199219-1.28125 1.367188-.253906.167969-22.527344 22.53125-.171875.253906-1.367188 1.28125-7.679687-10.242188c-3.324219-4.429687-5.117188-9.820312-5.117188-15.359375v-102.398437c0-4.714844 3.820313-8.535156 8.53125-8.535156zm0 0" fill="#f44335"/><path d="m196.265625 60.222656v76.800782h-69.375c-3.222656-1.808594-6.59375-3.347657-10.070313-4.605469l53.761719-80.640625h.085938c.394531-.070313.792969-.097656 1.195312-.085938h15.871094c4.710937 0 8.53125 3.820313 8.53125 8.53125zm0 0" fill="#c52828"/><path d="m256 137.023438h-59.734375v-22.613282c3.917969-4.472656 8.953125-7.832031 14.59375-9.726562h.085937c3.511719-1.210938 7.207032-1.816406 10.921876-1.792969 18.652343.472656 33.660156 15.480469 34.132812 34.132813zm0 0" fill="#1566c0"/><path d="m234.667969 137.023438h-38.402344v-22.613282c3.917969-4.472656 8.953125-7.832031 14.59375-9.726562h.085937c13.902344 4.746094 23.371094 17.65625 23.722657 32.339844zm0 0" fill="#2296f3"/><path d="m162.132812 196.757812c-.007812 5.050782-.554687 10.082032-1.621093 15.019532-7.078125 31.121094-34.730469 53.214844-66.644531 53.246094-3.683594-.023438-7.363282-.308594-11.007813-.851563-22.394531-3.671875-41.5-18.222656-50.996094-38.832031-9.492187-20.613282-8.128906-44.589844 3.636719-63.996094l.167969-.253906c5.613281-9.195313 13.335937-16.917969 22.53125-22.527344l.253906-.171875c7.566406-4.625 15.980469-7.699219 24.746094-9.046875 3.527343-.585938 7.09375-.871094 10.667969-.851562 7.820312-.015626 15.582031 1.3125 22.953124 3.925781 3.476563 1.257812 6.847657 2.796875 10.070313 4.605469.425781.171874.769531.429687 1.109375.597656 21.125 12.199218 34.140625 34.742187 34.132812 59.136718zm0 0" fill="#37474f"/><path d="m140.800781 196.757812c-.011719 5.050782-.554687 10.082032-1.621093 15.019532-3.191407 14.019531-10.714844 26.675781-21.503907 36.179687-9.792969 8.660157-21.886719 14.289063-34.816406 16.214844-22.394531-3.671875-41.5-18.222656-50.996094-38.832031-9.492187-20.613282-8.128906-44.589844 3.636719-63.996094l.167969-.253906c5.613281-9.195313 13.335937-16.917969 22.53125-22.527344l.253906-.171875c7.566406-4.625 15.980469-7.699219 24.746094-9.046875 4.1875.621094 8.304687 1.648438 12.289062 3.074219 3.476563 1.257812 6.84375 2.796875 10.070313 4.605469.425781.171874.765625.429687 1.109375.597656 21.125 12.199218 34.136719 34.742187 34.132812 59.136718zm0 0" fill="#607d8b"/><path d="m119.464844 196.757812c0 14.136719-11.460938 25.601563-25.597656 25.601563-3.691407.007813-7.335938-.808594-10.667969-2.390625-9.09375-4.144531-14.929688-13.21875-14.929688-23.210938 0-9.992187 5.835938-19.066406 14.929688-23.210937 3.332031-1.582031 6.976562-2.398437 10.667969-2.390625 14.136718 0 25.597656 11.464844 25.597656 25.601562zm0 0" fill="#9e9e9e"/><path d="m396.800781 196.757812c.019531 10-5.824219 19.085938-14.933593 23.210938-9.09375-4.144531-14.933594-13.21875-14.933594-23.210938 0-9.992187 5.839844-19.066406 14.933594-23.210937 9.109374 4.125 14.953124 13.210937 14.933593 23.210937zm0 0" fill="#cfd8dc"/><path d="m98.132812 196.757812c.023438 10-5.824218 19.085938-14.933593 23.210938-9.09375-4.144531-14.929688-13.21875-14.929688-23.210938 0-9.992187 5.835938-19.066406 14.929688-23.210937 9.109375 4.125 14.957031 13.210937 14.933593 23.210937zm0 0" fill="#cfd8dc"/><path d="m392.535156 273.558594h-76.800781c-4.714844 0-8.535156-3.820313-8.535156-8.535156 0-4.710938 3.820312-8.53125 8.535156-8.53125h76.800781c4.710938 0 8.53125 3.820312 8.53125 8.53125 0 4.714843-3.820312 8.535156-8.53125 8.535156zm0 0"/><path d="m93.867188 273.558594h-85.332032c-4.714844 0-8.535156-3.820313-8.535156-8.535156 0-4.710938 3.820312-8.53125 8.535156-8.53125h85.332032c4.710937 0 8.53125 3.820312 8.53125 8.53125 0 4.714843-3.820313 8.535156-8.53125 8.535156zm0 0"/><path d="m93.867188 273.558594c-42.414063 0-76.800782-34.386719-76.800782-76.800782 0-42.414062 34.386719-76.800781 76.800782-76.800781 42.414062 0 76.800781 34.386719 76.800781 76.800781-.046875 42.394532-34.40625 76.753907-76.800781 76.800782zm0-136.535156c-32.992188 0-59.734376 26.746093-59.734376 59.734374 0 32.988282 26.742188 59.734376 59.734376 59.734376 32.988281 0 59.734374-26.746094 59.734374-59.734376-.042968-32.972656-26.761718-59.691406-59.734374-59.734374zm0 0"/><path d="m93.867188 230.890625c-18.851563 0-34.132813-15.28125-34.132813-34.132813 0-18.851562 15.28125-34.132812 34.132813-34.132812 18.851562 0 34.132812 15.28125 34.132812 34.132812 0 18.851563-15.28125 34.132813-34.132812 34.132813zm0-51.199219c-9.425782 0-17.066407 7.640625-17.066407 17.066406 0 9.425782 7.640625 17.066407 17.066407 17.066407 9.425781 0 17.066406-7.640625 17.066406-17.066407 0-9.425781-7.640625-17.066406-17.066406-17.066406zm0 0"/><path d="m392.535156 273.558594c-42.417968 0-76.800781-34.386719-76.800781-76.800782 0-42.414062 34.382813-76.800781 76.800781-76.800781 42.414063 0 76.796875 34.386719 76.796875 76.800781-.046875 42.394532-34.402343 76.753907-76.796875 76.800782zm0-136.535156c-32.992187 0-59.734375 26.746093-59.734375 59.734374 0 32.988282 26.742188 59.734376 59.734375 59.734376 32.988282 0 59.730469-26.746094 59.730469-59.734376-.042969-32.972656-26.761719-59.691406-59.730469-59.734374zm0 0"/><path d="m392.535156 230.890625c-18.851562 0-34.136718-15.28125-34.136718-34.132813 0-18.851562 15.285156-34.132812 34.136718-34.132812 18.847656 0 34.132813 15.28125 34.132813 34.132812 0 18.851563-15.285157 34.132813-34.132813 34.132813zm0-51.199219c-9.425781 0-17.070312 7.640625-17.070312 17.066406 0 9.425782 7.644531 17.066407 17.070312 17.066407 9.425782 0 17.066406-7.640625 17.066406-17.066407 0-9.425781-7.640624-17.066406-17.066406-17.066406zm0 0"/><path d="m264.0625 256.492188h-127.527344v-17.066407h127.527344c8.96875.019531 17.570312-3.542969 23.894531-9.898437l30.269531-30.269532 12.066407 12.066407-30.261719 30.269531c-9.519531 9.570312-22.46875 14.933594-35.96875 14.898438zm0 0"/><path d="m324.265625 196.757812h-102.398437c-4.714844 0-8.535157-3.820312-8.535157-8.535156 0-4.710937 3.820313-8.53125 8.535157-8.53125h102.398437c4.714844 0 8.535156 3.820313 8.535156 8.53125 0 4.714844-3.820312 8.535156-8.535156 8.535156zm0 0"/><path d="m34.132812 171.15625c-2.683593 0-5.214843-1.261719-6.824218-3.410156l-20.480469-27.308594c-4.417969-5.914062-6.8125-13.097656-6.828125-20.480469v-102.398437c0-9.425782 7.640625-17.066406 17.066406-17.066406h85.332032c9.425781 0 17.066406 7.640624 17.066406 17.066406v59.734375c0 9.425781-7.640625 17.066406-17.066406 17.066406h-11.792969l-23.191407 46.480469c-1.363281 2.726562-4.078124 4.523437-7.121093 4.707031-3.046875.183594-5.957031-1.269531-7.640625-3.816406-1.679688-2.542969-1.875-5.792969-.515625-8.519531l25.601562-51.199219c1.4375-2.882813 4.375-4.707031 7.59375-4.71875h17.066407v-59.734375h-85.332032v102.398437c.015625 3.691407 1.210938 7.28125 3.414063 10.242188l20.480469 27.304687c1.9375 2.585938 2.25 6.046875.804687 8.9375s-4.398437 4.714844-7.632813 4.714844zm0 0"/><path d="m489.402344 256.492188h-54.203125v-17.066407h54.203125c2.855468.011719 5.25-2.148437 5.527344-4.988281.28125-2.835938-1.640626-5.421875-4.441407-5.96875l-31.394531-6.28125 3.34375-16.726562 31.359375 6.273437c11.394531 2.269531 19.210937 12.808594 18.078125 24.367187-1.136719 11.5625-10.855469 20.378907-22.472656 20.390626zm0 0"/><path d="m339.269531 162.367188-63.148437-15.792969c-2.714844-.679688-5.503906-1.019531-8.300782-1.015625h-139.820312v-17.066406h139.820312c4.1875 0 8.359376.515624 12.421876 1.535156l63.148437 15.785156zm0 0"/><path d="m204.800781 137.023438h-17.066406v-76.800782h-15.871094l-58.59375 16.746094-4.675781-16.417969 58.582031-16.746093c1.523438-.429688 3.101563-.648438 4.6875-.648438h15.871094c9.425781 0 17.066406 7.644531 17.066406 17.066406zm0 0"/><path d="m112.371094 123.757812 51.199218-76.800781 14.199219 9.464844-51.199219 76.804687zm0 0"/><path d="m264.535156 137.023438h-17.070312c-.527344-13.910157-11.683594-25.070313-25.597656-25.597657-7.347657 0-14.339844 3.15625-19.199219 8.667969l-12.800781-11.296875c8.101562-9.183594 19.753906-14.441406 32-14.4375 23.3125.589844 42.074218 19.351563 42.667968 42.664063zm0 0"/><path d="m8.535156 85.824219c-4.183594-.007813-7.746094-3.050781-8.40625-7.179688-.664062-4.128906 1.761719-8.132812 5.734375-9.453125l45.335938-14.941406v-10.914062c0-4.710938 3.820312-8.53125 8.535156-8.53125 4.710937 0 8.53125 3.820312 8.53125 8.53125v10.914062c.003906 7.367188-4.71875 13.90625-11.714844 16.214844l-45.347656 14.925781c-.859375.289063-1.761719.433594-2.667969.433594zm0 0"/><path d="m187.734375 179.691406h-25.601563c-4.710937 0-8.53125-3.820312-8.53125-8.535156 0-4.710938 3.820313-8.53125 8.53125-8.53125h25.601563c4.710937 0 8.53125 3.820312 8.53125 8.53125 0 4.714844-3.820313 8.535156-8.53125 8.535156zm0 0"/><path d="m230.398438 256.492188c-1.316407.011718-2.617188-.28125-3.804688-.855469l-68.265625-34.132813c-4.21875-2.105468-5.929687-7.234375-3.824219-11.449218 2.105469-4.21875 7.234375-5.929688 11.453125-3.824219l68.265625 34.132812c3.496094 1.792969 5.320313 5.738281 4.414063 9.5625s-4.308594 6.535157-8.238281 6.566407zm0 0"/></svg>